{"accessors":[{"name":"Node-Mesh_positions","componentType":5126,"count":30518,"min":[0.06300000101327896,0.25859999656677246,0.09399999678134918],"max":[0.320499986410141,0.3855000138282776,0.2696000039577484],"type":"VEC3","bufferView":0,"byteOffset":0},{"name":"Node-Mesh_normals","componentType":5126,"count":30518,"min":[-1,-1,-1],"max":[1,1,1],"type":"VEC3","bufferView":0,"byteOffset":366216},{"name":"Node-Mesh_texcoords","componentType":5126,"count":30518,"min":[0.004900000058114529,0.004910000134259462],"max":[0.798829972743988,0.7986699938774109],"type":"VEC2","bufferView":1,"byteOffset":0},{"name":"Node-Mesh_0_indices","componentType":5123,"count":126042,"min":[0],"max":[30517],"type":"SCALAR","bufferView":2,"byteOffset":0}],"asset":{"generator":"obj2gltf","version":"2.0"},"buffers":[{"name":"Model","byteLength":1848124,"uri":"data:application/octet-stream;base64,"}],"bufferViews":[{"name":"bufferView_0","buffer":0,"byteLength":732432,"byteOffset":0,"byteStride":12,"target":34962},{"name":"bufferView_1","buffer":0,"byteLength":244144,"byteOffset":732432,"byteStride":8,"target":34962},{"name":"bufferView_2","buffer":0,"byteLength":252084,"byteOffset":976576,"target":34963},{"buffer":0,"byteOffset":1228660,"byteLength":619464}],"images":[{"name":"Model","mimeType":"image/jpeg","bufferView":3}],"materials":[{"name":"material0","pbrMetallicRoughness":{"baseColorTexture":{"index":0},"baseColorFactor":[1,1,1,1],"metallicFactor":0,"roughnessFactor":1},"emissiveFactor":[0,0,0],"alphaMode":"OPAQUE","doubleSided":false}],"meshes":[{"name":"Node-Mesh","primitives":[{"attributes":{"POSITION":0,"NORMAL":1,"TEXCOORD_0":2},"indices":3,"material":0,"mode":4}]}],"nodes":[{"name":"Node","mesh":0}],"samplers":[{"magFilter":9729,"minFilter":9986,"wrapS":10497,"wrapT":10497}],"scene":0,"scenes":[{"nodes":[0]}],"textures":[{"name":"Model","sampler":0,"source":0}]}
