{"accessors":[{"name":"Node-Mesh_positions","componentType":5126,"count":16063,"min":[0.06610000133514404,0.2816999852657318,0.05730000138282776],"max":[0.2903999984264374,0.3765000104904175,0.21770000457763672],"type":"VEC3","bufferView":0,"byteOffset":0},{"name":"Node-Mesh_normals","componentType":5126,"count":16063,"min":[-1,-1,-1],"max":[1,1,0.9900000095367432],"type":"VEC3","bufferView":0,"byteOffset":192756},{"name":"Node-Mesh_texcoords","componentType":5126,"count":16063,"min":[0.009859999641776085,0.009850000031292439],"max":[0.9899899959564209,0.9899100065231323],"type":"VEC2","bufferView":1,"byteOffset":0},{"name":"Node-Mesh_0_indices","componentType":5123,"count":67848,"min":[0],"max":[16062],"type":"SCALAR","bufferView":2,"byteOffset":0}],"asset":{"generator":"obj2gltf","version":"2.0"},"buffers":[{"name":"Model","byteLength":934848,"uri":"data:application/octet-stream;base64,"}],"bufferViews":[{"name":"bufferView_0","buffer":0,"byteLength":385512,"byteOffset":0,"byteStride":12,"target":34962},{"name":"bufferView_1","buffer":0,"byteLength":128504,"byteOffset":385512,"byteStride":8,"target":34962},{"name":"bufferView_2","buffer":0,"byteLength":135696,"byteOffset":514016,"target":34963},{"buffer":0,"byteOffset":649712,"byteLength":285136}],"images":[{"name":"Model","mimeType":"image/jpeg","bufferView":3}],"materials":[{"name":"material0","pbrMetallicRoughness":{"baseColorTexture":{"index":0},"baseColorFactor":[1,1,1,1],"metallicFactor":0,"roughnessFactor":1},"emissiveFactor":[0,0,0],"alphaMode":"OPAQUE","doubleSided":false}],"meshes":[{"name":"Node-Mesh","primitives":[{"attributes":{"POSITION":0,"NORMAL":1,"TEXCOORD_0":2},"indices":3,"material":0,"mode":4}]}],"nodes":[{"name":"Node","mesh":0}],"samplers":[{"magFilter":9729,"minFilter":9986,"wrapS":10497,"wrapT":10497}],"scene":0,"scenes":[{"nodes":[0]}],"textures":[{"name":"Model","sampler":0,"source":0}]}
