{"accessors":[{"name":"Node-Mesh_positions","componentType":5126,"count":20242,"min":[0.027400000020861626,0.19140000641345978,0.03739999979734421],"max":[0.25290000438690186,0.2775000035762787,0.19439999759197235],"type":"VEC3","bufferView":0,"byteOffset":0},{"name":"Node-Mesh_normals","componentType":5126,"count":20242,"min":[-1,-1,-1],"max":[1,1,1],"type":"VEC3","bufferView":0,"byteOffset":242904},{"name":"Node-Mesh_texcoords","componentType":5126,"count":20242,"min":[0.00494999997317791,0.0049299998208880424],"max":[0.5994899868965149,0.5996000170707703],"type":"VEC2","bufferView":1,"byteOffset":0},{"name":"Node-Mesh_0_indices","componentType":5123,"count":83682,"min":[0],"max":[20241],"type":"SCALAR","bufferView":2,"byteOffset":0}],"asset":{"generator":"obj2gltf","version":"2.0"},"buffers":[{"name":"Model","byteLength":1265980,"uri":"data:application/octet-stream;base64,"}],"bufferViews":[{"name":"bufferView_0","buffer":0,"byteLength":485808,"byteOffset":0,"byteStride":12,"target":34962},{"name":"bufferView_1","buffer":0,"byteLength":161936,"byteOffset":485808,"byteStride":8,"target":34962},{"name":"bufferView_2","buffer":0,"byteLength":167364,"byteOffset":647744,"target":34963},{"buffer":0,"byteOffset":815108,"byteLength":450871}],"images":[{"name":"Model","mimeType":"image/jpeg","bufferView":3}],"materials":[{"name":"material0","pbrMetallicRoughness":{"baseColorTexture":{"index":0},"baseColorFactor":[1,1,1,1],"metallicFactor":0,"roughnessFactor":1},"emissiveFactor":[0,0,0],"alphaMode":"OPAQUE","doubleSided":false}],"meshes":[{"name":"Node-Mesh","primitives":[{"attributes":{"POSITION":0,"NORMAL":1,"TEXCOORD_0":2},"indices":3,"material":0,"mode":4}]}],"nodes":[{"name":"Node","mesh":0}],"samplers":[{"magFilter":9729,"minFilter":9986,"wrapS":10497,"wrapT":10497}],"scene":0,"scenes":[{"nodes":[0]}],"textures":[{"name":"Model","sampler":0,"source":0}]}
