{"accessors":[{"name":"Object.1-Mesh_positions","componentType":5126,"count":15047,"min":[17.666486740112305,50.95702362060547,0],"max":[81.43096923828125,96.21649169921875,23.336349487304688],"type":"VEC3","bufferView":0,"byteOffset":0},{"name":"Object.1-Mesh_texcoords","componentType":5126,"count":14648,"min":[0,0.004970000125467777],"max":[0.5994899868965149,1],"type":"VEC2","bufferView":1,"byteOffset":0},{"name":"Object.1-Mesh_0_indices","componentType":5123,"count":399,"min":[0],"max":[398],"type":"SCALAR","bufferView":2,"byteOffset":0},{"name":"Object.1-Mesh_1_indices","componentType":5123,"count":57573,"min":[399],"max":[15046],"type":"SCALAR","bufferView":2,"byteOffset":800}],"asset":{"generator":"obj2gltf","version":"2.0"},"buffers":[{"name":"Wide","byteLength":864568,"uri":"data:application/octet-stream;base64,"}],"bufferViews":[{"name":"bufferView_0","buffer":0,"byteLength":180564,"byteOffset":0,"byteStride":12,"target":34962},{"name":"bufferView_1","buffer":0,"byteLength":117184,"byteOffset":180564,"byteStride":8,"target":34962},{"name":"bufferView_2","buffer":0,"byteLength":115948,"byteOffset":297748,"target":34963},{"buffer":0,"byteOffset":413696,"byteLength":450871}],"images":[{"name":"Wide","mimeType":"image/jpeg","bufferView":3}],"materials":[{"name":"default","pbrMetallicRoughness":{"baseColorFactor":[0.5,0.5,0.5,1],"metallicFactor":0,"roughnessFactor":1},"emissiveFactor":[0,0,0],"alphaMode":"OPAQUE","doubleSided":false},{"name":"Mat_0","pbrMetallicRoughness":{"baseColorTexture":{"index":0},"baseColorFactor":[1,1,1,1],"metallicFactor":0,"roughnessFactor":1},"emissiveFactor":[0,0,0],"alphaMode":"OPAQUE","doubleSided":false}],"meshes":[{"name":"Object.1-Mesh","primitives":[{"attributes":{"POSITION":0,"TEXCOORD_0":1},"indices":2,"material":0,"mode":4},{"attributes":{"POSITION":0,"TEXCOORD_0":1},"indices":3,"material":1,"mode":4}]}],"nodes":[{"name":"Object.1","mesh":0}],"samplers":[{"magFilter":9729,"minFilter":9986,"wrapS":10497,"wrapT":10497}],"scene":0,"scenes":[{"nodes":[0]}],"textures":[{"name":"Wide","sampler":0,"source":0}]}
